<?xml version="1.0" encoding="UTF-8"?>
<svg id="Layer_2" data-name="Layer 2" xmlns="http://www.w3.org/2000/svg" viewBox="0 0 68.72 26.16">
  <defs>
    <style>
      .cls-1 {
        fill: #606060;
        font-family: Inter24pt-Regular, 'Inter 24pt';
        font-size: 22px;
      }

      .cls-2 {
        fill: #363636;
        fill-rule: evenodd;
      }

      .cls-3 {
        fill: #1768b5;
      }
    </style>
  </defs>
  <g id="Layer_1-2" data-name="Layer 1">
    <g>
      <path class="cls-2" d="M1.54,2.32v6.41h6.53V2.32H1.54ZM.58.81c-.32,0-.58.25-.58.57v8.29c0,.31.26.57.58.57h8.46c.32,0,.58-.25.58-.57V1.38c0-.31-.26-.57-.58-.57H.58Z"/>
      <path class="cls-2" d="M1.54,13.62v6.41h6.53v-6.41H1.54ZM.58,12.12c-.32,0-.58.25-.58.57v8.29c0,.31.26.57.58.57h8.46c.32,0,.58-.25.58-.57v-8.29c0-.31-.26-.57-.58-.57H.58Z"/>
      <path class="cls-3" d="M11.53,12.68c0-.31.26-.57.58-.57h6.53c.32,0,.58.25.58.57v6.41c0,.31-.26.57-.58.57h-6.53c-.32,0-.58-.25-.58-.57v-6.41Z"/>
      <path class="cls-2" d="M13.07,2.32v6.41h6.53V2.32h-6.53ZM12.11.81c-.32,0-.58.25-.58.57v8.29c0,.31.26.57.58.57h8.46c.32,0,.58-.25.58-.57V1.38c0-.31-.26-.57-.58-.57h-8.46Z"/>
      <text class="cls-1" transform="translate(22.63 19) scale(.99 1)"><tspan x="0" y="0">KLIV</tspan></text>
    </g>
  </g>
</svg>